<svg width="512" height="225" viewBox="0 0 512 225" fill="none" xmlns="http://www.w3.org/2000/svg">
<g filter="url(#filter0_d_2_21)">
<path d="M75.6917 111.232L79.5589 103.927V143.673H75.6917V111.232ZM83.426 96.4075L87.2932 89.1028V143.673H83.426V96.4075ZM91.1604 81.7981L95.0276 74.4397V143.673H91.1604V81.7981ZM65.218 109.406L63.0159 105.377L89.6565 54.7278H94.0071L65.218 109.406ZM60.76 100.973L58.5042 96.8909L80.8479 54.7278H85.2522L60.76 100.973ZM34.8714 104.357L38.7385 111.661V143.673H34.8714V104.357ZM27.137 89.6399L31.0042 96.9446V143.673H27.137V89.6399ZM19.4026 74.9231L23.2698 82.2815V143.673H19.4026V74.9231ZM50.6624 120.47H46.3118L15.5354 62.0862V143.673H11.6682V54.7278H16.0188L50.6624 120.47ZM59.4173 120.47H55.013L20.4231 54.7278H24.8274L59.4173 120.47ZM98.8948 62.0862L68.1184 120.47H63.7141L29.178 54.7278H33.5286L65.97 116.388L98.3577 54.7278H102.762V143.673H98.8948V62.0862ZM183.167 66.3294H187.034L162.703 117.57V143.673H158.836V117.57L183.167 66.3294ZM175.433 66.3294H179.3L154.969 117.57V143.673H151.102V117.57L175.433 66.3294ZM167.699 66.3294H171.566L147.235 117.57V143.673H143.367V117.57L167.699 66.3294ZM159.964 66.3294H163.831L139.5 117.57V143.673H135.633V117.57L109.691 66.3294H113.558L137.513 113.649L159.964 66.3294ZM117.479 66.3294H121.346L140.521 102.799L138.587 107.042L117.479 66.3294ZM125.213 66.3294H129.134L144.388 94.3128L142.401 98.5559L125.213 66.3294ZM133.055 66.3294H136.922L148.255 85.8801L146.322 90.1233L133.055 66.3294ZM264.7 97.2132H268.568V143.673H264.7V97.2132ZM280.169 97.2132H284.036V143.673H280.169V97.2132ZM272.435 97.2132H276.302V143.673H272.435V97.2132ZM260.833 97.2132V143.673C254.03 146.251 246.976 147.54 239.671 147.54C233.333 147.54 227.264 146.377 221.463 144.049C215.662 141.722 210.56 138.499 206.156 134.381C201.751 130.227 198.224 125.107 195.574 119.02C192.961 112.897 191.654 106.29 191.654 99.2005C191.654 92.6477 192.925 86.3994 195.467 80.4553C198.045 74.4755 201.483 69.3372 205.78 65.0403C210.112 60.7076 215.251 57.2701 221.195 54.7278C227.174 52.1497 233.441 50.8606 239.993 50.8606C248.157 50.8606 255.749 52.7584 262.767 56.554C269.785 60.3495 275.514 65.5058 279.954 72.0227L276.732 74.1175C272.65 68.1376 267.368 63.4111 260.887 59.9378C254.442 56.4645 247.477 54.7278 239.993 54.7278C233.978 54.7278 228.213 55.9094 222.699 58.2727C217.22 60.6002 212.493 63.7512 208.519 67.7258C204.544 71.7005 201.375 76.4449 199.012 81.9592C196.685 87.4378 195.521 93.1848 195.521 99.2005C195.521 105.682 196.72 111.733 199.119 117.355C201.554 122.977 204.777 127.685 208.787 131.481C212.834 135.276 217.524 138.266 222.86 140.45C228.195 142.599 233.745 143.673 239.51 143.673C245.561 143.673 251.38 142.724 256.966 140.826V137.12C251.631 138.911 246.027 139.806 240.155 139.806C235.893 139.806 231.74 139.215 227.694 138.033C223.683 136.816 219.959 135.044 216.522 132.716C213.12 130.353 210.13 127.56 207.552 124.337C205.01 121.079 203.004 117.301 201.536 113.004C200.104 108.671 199.388 104.07 199.388 99.2005C199.388 91.86 201.196 85.0745 204.813 78.844C208.465 72.6135 213.407 67.69 219.637 64.0735C225.867 60.4212 232.653 58.595 239.993 58.595C246.868 58.595 253.26 60.2063 259.168 63.429C265.076 66.6158 269.893 70.9485 273.616 76.427L270.394 78.5217C267.028 73.5803 262.659 69.6773 257.288 66.8128C251.953 63.9124 246.188 62.4622 239.993 62.4622C235.016 62.4622 230.254 63.429 225.706 65.3626C221.159 67.2962 217.238 69.9101 213.944 73.2044C210.685 76.4628 208.089 80.3658 206.156 84.9133C204.222 89.4609 203.255 94.2232 203.255 99.2005C203.255 103.676 203.9 107.884 205.189 111.823C206.514 115.726 208.322 119.145 210.614 122.081C212.941 124.982 215.644 127.488 218.724 129.601C221.803 131.678 225.151 133.253 228.768 134.327C232.42 135.402 236.162 135.939 239.993 135.939C245.937 135.939 251.595 134.936 256.966 132.931V129.064C251.667 131.105 246.134 132.125 240.369 132.125C236.001 132.125 231.829 131.391 227.855 129.923C223.88 128.419 220.335 126.307 217.22 123.585C214.141 120.864 211.688 117.391 209.862 113.165C208.035 108.94 207.122 104.285 207.122 99.2005C207.122 93.2564 208.59 87.76 211.527 82.7112C214.463 77.6624 218.455 73.6699 223.504 70.7337C228.553 67.7975 234.049 66.3294 239.993 66.3294C245.544 66.3294 250.7 67.6184 255.462 70.1966C260.26 72.7747 264.163 76.2838 267.171 80.7239L263.949 82.8186C261.299 78.9514 257.861 75.8899 253.636 73.6341C249.447 71.3424 244.899 70.1966 239.993 70.1966C234.73 70.1966 229.878 71.5035 225.438 74.1175C220.998 76.6956 217.471 80.2047 214.857 84.6448C212.279 89.0849 210.99 93.9368 210.99 99.2005C210.99 102.853 211.509 106.254 212.547 109.406C213.586 112.557 215.018 115.278 216.844 117.57C218.67 119.861 220.801 121.813 223.236 123.424C225.706 125.035 228.356 126.253 231.185 127.076C234.014 127.864 236.95 128.258 239.993 128.258C246.045 128.258 251.702 127.059 256.966 124.659V120.953C251.881 123.209 246.385 124.337 240.477 124.337C237.075 124.337 233.87 123.818 230.863 122.78C227.855 121.741 225.133 120.219 222.699 118.214C220.299 116.209 218.384 113.577 216.951 110.319C215.555 107.024 214.857 103.318 214.857 99.2005C214.857 95.7988 215.519 92.5582 216.844 89.4788C218.169 86.3635 219.959 83.678 222.215 81.4221C224.471 79.1663 227.139 77.3759 230.218 76.051C233.333 74.7262 236.592 74.0637 239.993 74.0637C244.254 74.0637 248.211 75.0663 251.864 77.0716C255.516 79.041 258.488 81.7265 260.78 85.1282L257.611 87.2229C255.677 84.3583 253.153 82.1025 250.037 80.4553C246.958 78.7724 243.61 77.9309 239.993 77.9309C234.121 77.9309 229.108 80.0078 224.954 84.1614C220.801 88.315 218.724 93.3281 218.724 99.2005C218.724 102.817 219.315 106.022 220.496 108.815C221.678 111.572 223.289 113.792 225.33 115.475C227.407 117.122 229.699 118.375 232.205 119.235C234.748 120.058 237.469 120.47 240.369 120.47C246.313 120.47 251.846 119.235 256.966 116.764V97.2132H260.833ZM363.743 66.3294H367.611L343.28 117.57V143.673H339.412V117.57L363.743 66.3294ZM356.009 66.3294H359.876L335.545 117.57V143.673H331.678V117.57L356.009 66.3294ZM348.275 66.3294H352.142L327.811 117.57V143.673H323.944V117.57L348.275 66.3294ZM340.54 66.3294H344.407L320.076 117.57V143.673H316.209V117.57L290.267 66.3294H294.134L318.089 113.649L340.54 66.3294ZM298.055 66.3294H301.922L321.097 102.799L319.163 107.042L298.055 66.3294ZM305.789 66.3294H309.71L324.964 94.3128L322.977 98.5559L305.789 66.3294ZM313.631 66.3294H317.498L328.831 85.8801L326.898 90.1233L313.631 66.3294ZM423.631 95.3333V143.673H419.764V95.3333C419.764 94.2949 419.585 93.4176 419.227 92.7014C418.905 91.9495 418.475 91.3766 417.938 90.9827C417.401 90.5888 416.685 90.2844 415.789 90.0696C414.93 89.8189 414.088 89.6757 413.265 89.6399C412.441 89.5683 411.421 89.5325 410.203 89.5325C408.986 89.5325 407.965 89.5683 407.142 89.6399C406.318 89.6757 405.459 89.8189 404.564 90.0696C403.704 90.2844 403.006 90.5888 402.469 90.9827C401.932 91.3766 401.484 91.9495 401.126 92.7014C400.804 93.4176 400.643 94.2949 400.643 95.3333V143.673H396.776V95.3333C396.776 88.888 401.252 85.6653 410.203 85.6653C419.155 85.6653 423.631 88.888 423.631 95.3333ZM431.365 95.3333V143.673H427.498V95.3333C427.498 90.7857 425.887 87.402 422.664 85.1819C419.477 82.926 415.324 81.7981 410.203 81.7981C405.083 81.7981 400.911 82.926 397.689 85.1819C394.502 87.402 392.908 90.7857 392.908 95.3333V143.673H389.041V95.3333C389.041 91.5735 390.008 88.3508 391.942 85.6653C393.875 82.9798 396.4 81.0283 399.515 79.8108C402.666 78.5576 406.229 77.9309 410.203 77.9309C414.178 77.9309 417.723 78.5576 420.838 79.8108C423.989 81.0283 426.532 82.9798 428.465 85.6653C430.399 88.3508 431.365 91.5735 431.365 95.3333ZM439.1 95.3333V143.673H435.233V95.3333C435.233 91.9674 434.57 88.9238 433.245 86.2024C431.956 83.4811 430.166 81.2431 427.874 79.4885C425.583 77.734 422.933 76.3912 419.925 75.4602C416.917 74.5292 413.677 74.0637 410.203 74.0637C406.73 74.0637 403.49 74.5292 400.482 75.4602C397.474 76.3912 394.824 77.734 392.532 79.4885C390.241 81.2431 388.433 83.4811 387.108 86.2024C385.819 88.9238 385.174 91.9674 385.174 95.3333V143.673H381.307V95.3333C381.307 91.4303 382.059 87.8854 383.563 84.6985C385.102 81.5117 387.179 78.8798 389.793 76.803C392.407 74.6904 395.469 73.0611 398.978 71.9153C402.487 70.7695 406.229 70.1966 410.203 70.1966C414.178 70.1966 417.92 70.7695 421.429 71.9153C424.938 73.0611 428 74.6904 430.614 76.803C433.227 78.8798 435.286 81.5117 436.79 84.6985C438.33 87.8854 439.1 91.4303 439.1 95.3333ZM446.834 143.673H442.967V95.3333C442.967 91.4303 442.09 87.6884 440.335 84.1077C438.616 80.527 436.289 77.4475 433.353 74.8694C430.417 72.2555 426.925 70.1786 422.879 68.6389C418.833 67.0992 414.608 66.3294 410.203 66.3294C404.152 66.3294 398.656 67.4752 393.714 69.7669C388.809 72.0227 384.87 75.3886 381.898 79.8645C378.926 84.3046 377.44 89.4609 377.44 95.3333V143.673H373.573V95.3333C373.573 90.3919 374.539 85.8443 376.473 81.6907C378.407 77.537 381.02 74.0637 384.315 71.2708C387.645 68.4778 391.53 66.3115 395.97 64.7717C400.446 63.232 405.19 62.4622 410.203 62.4622C419.084 62.4622 426.782 64.7001 433.299 69.176C439.816 64.7001 447.515 62.4622 456.395 62.4622C461.408 62.4622 466.134 63.232 470.574 64.7717C475.05 66.3115 478.935 68.4778 482.23 71.2708C485.56 74.0637 488.192 77.537 490.125 81.6907C492.059 85.8443 493.026 90.3919 493.026 95.3333V143.673H489.158V95.3333C489.158 89.4967 487.672 84.3583 484.7 79.9182C481.728 75.4423 477.772 72.0585 472.83 69.7669C467.925 67.4752 462.446 66.3294 456.395 66.3294C448.804 66.3294 442.179 68.1197 436.522 71.7005C437.345 72.4166 438.258 73.3476 439.261 74.4934C444.167 71.6288 449.878 70.1966 456.395 70.1966C460.369 70.1966 464.111 70.7695 467.62 71.9153C471.129 73.0611 474.191 74.6904 476.805 76.803C479.419 78.8798 481.478 81.5117 482.982 84.6985C484.521 87.8854 485.291 91.4303 485.291 95.3333V143.673H481.424V95.3333C481.424 91.9674 480.762 88.9238 479.437 86.2024C478.148 83.4811 476.357 81.2431 474.066 79.4885C471.774 77.734 469.124 76.3912 466.116 75.4602C463.109 74.5292 459.868 74.0637 456.395 74.0637C450.701 74.0637 445.778 75.2275 441.624 77.555C442.269 78.5576 442.913 79.6676 443.558 80.885C447.067 78.9156 451.346 77.9309 456.395 77.9309C460.369 77.9309 463.914 78.5576 467.03 79.8108C470.181 81.0283 472.723 82.9798 474.657 85.6653C476.59 88.3508 477.557 91.5735 477.557 95.3333V143.673H473.69V95.3333C473.69 90.7857 472.078 87.402 468.856 85.1819C465.669 82.926 461.515 81.7981 456.395 81.7981C451.74 81.7981 447.962 82.6575 445.062 84.3762C445.527 85.7369 445.885 87.026 446.136 88.2434C448.392 86.5247 451.811 85.6653 456.395 85.6653C465.347 85.6653 469.823 88.888 469.823 95.3333V143.673H465.955V95.3333C465.955 94.2949 465.776 93.4176 465.418 92.7014C465.096 91.9495 464.666 91.3766 464.129 90.9827C463.592 90.5888 462.876 90.2844 461.981 90.0696C461.121 89.8189 460.28 89.6757 459.456 89.6399C458.633 89.5683 457.612 89.5325 456.395 89.5325C455.177 89.5325 454.157 89.5683 453.333 89.6399C452.51 89.6757 451.65 89.8189 450.755 90.0696C449.896 90.2844 449.198 90.5888 448.66 90.9827C448.123 91.3766 447.676 91.9495 447.318 92.7014C446.995 93.4176 446.834 94.2949 446.834 95.3333V143.673Z" fill="url(#paint0_linear_2_21)"/>
<path d="M79.0186 114.559L82.8857 107.254V147H79.0186V114.559ZM86.7529 99.7344L90.6201 92.4297V147H86.7529V99.7344ZM94.4873 85.125L98.3545 77.7666V147H94.4873V85.125ZM68.5449 112.732L66.3428 108.704L92.9834 58.0547H97.334L68.5449 112.732ZM64.0869 104.3L61.8311 100.218L84.1748 58.0547H88.5791L64.0869 104.3ZM38.1982 107.684L42.0654 114.988V147H38.1982V107.684ZM30.4639 92.9668L34.3311 100.271V147H30.4639V92.9668ZM22.7295 78.25L26.5967 85.6084V147H22.7295V78.25ZM53.9893 123.797H49.6387L18.8623 65.4131V147H14.9951V58.0547H19.3457L53.9893 123.797ZM62.7441 123.797H58.3398L23.75 58.0547H28.1543L62.7441 123.797ZM102.222 65.4131L71.4453 123.797H67.041L32.5049 58.0547H36.8555L69.2969 119.715L101.685 58.0547H106.089V147H102.222V65.4131ZM186.494 69.6562H190.361L166.03 120.896V147H162.163V120.896L186.494 69.6562ZM178.76 69.6562H182.627L158.296 120.896V147H154.429V120.896L178.76 69.6562ZM171.025 69.6562H174.893L150.562 120.896V147H146.694V120.896L171.025 69.6562ZM163.291 69.6562H167.158L142.827 120.896V147H138.96V120.896L113.018 69.6562H116.885L140.84 116.976L163.291 69.6562ZM120.806 69.6562H124.673L143.848 106.126L141.914 110.369L120.806 69.6562ZM128.54 69.6562H132.461L147.715 97.6396L145.728 101.883L128.54 69.6562ZM136.382 69.6562H140.249L151.582 89.207L149.648 93.4502L136.382 69.6562ZM268.027 100.54H271.895V147H268.027V100.54ZM283.496 100.54H287.363V147H283.496V100.54ZM275.762 100.54H279.629V147H275.762V100.54ZM264.16 100.54V147C257.357 149.578 250.303 150.867 242.998 150.867C236.66 150.867 230.591 149.703 224.79 147.376C218.989 145.049 213.887 141.826 209.482 137.708C205.078 133.554 201.551 128.434 198.901 122.347C196.287 116.224 194.98 109.617 194.98 102.527C194.98 95.9746 196.252 89.7262 198.794 83.7822C201.372 77.8024 204.81 72.6641 209.106 68.3672C213.439 64.0345 218.577 60.597 224.521 58.0547C230.501 55.4766 236.768 54.1875 243.32 54.1875C251.484 54.1875 259.076 56.0853 266.094 59.8809C273.112 63.6764 278.841 68.8327 283.281 75.3496L280.059 77.4443C275.977 71.4645 270.695 66.738 264.214 63.2646C257.769 59.7913 250.804 58.0547 243.32 58.0547C237.305 58.0547 231.54 59.2363 226.025 61.5996C220.547 63.9271 215.82 67.0781 211.846 71.0527C207.871 75.0273 204.702 79.7718 202.339 85.2861C200.011 90.7646 198.848 96.5117 198.848 102.527C198.848 109.008 200.047 115.06 202.446 120.682C204.881 126.303 208.104 131.012 212.114 134.808C216.16 138.603 220.851 141.593 226.187 143.777C231.522 145.926 237.072 147 242.837 147C248.888 147 254.707 146.051 260.293 144.153V140.447C254.958 142.238 249.354 143.133 243.481 143.133C239.22 143.133 235.067 142.542 231.021 141.36C227.01 140.143 223.286 138.37 219.849 136.043C216.447 133.68 213.457 130.887 210.879 127.664C208.337 124.406 206.331 120.628 204.863 116.331C203.431 111.998 202.715 107.397 202.715 102.527C202.715 95.1868 204.523 88.4014 208.14 82.1709C211.792 75.9404 216.733 71.0169 222.964 67.4004C229.194 63.748 235.98 61.9219 243.32 61.9219C250.195 61.9219 256.587 63.5332 262.495 66.7559C268.403 69.9427 273.219 74.2754 276.943 79.7539L273.721 81.8486C270.355 76.9072 265.986 73.0042 260.615 70.1396C255.28 67.2393 249.515 65.7891 243.32 65.7891C238.343 65.7891 233.581 66.7559 229.033 68.6895C224.486 70.623 220.565 73.237 217.271 76.5312C214.012 79.7897 211.416 83.6927 209.482 88.2402C207.549 92.7878 206.582 97.5501 206.582 102.527C206.582 107.003 207.227 111.211 208.516 115.149C209.84 119.052 211.649 122.472 213.94 125.408C216.268 128.309 218.971 130.815 222.051 132.928C225.13 135.005 228.478 136.58 232.095 137.654C235.747 138.729 239.489 139.266 243.32 139.266C249.264 139.266 254.922 138.263 260.293 136.258V132.391C254.993 134.432 249.461 135.452 243.696 135.452C239.328 135.452 235.156 134.718 231.182 133.25C227.207 131.746 223.662 129.633 220.547 126.912C217.467 124.191 215.015 120.717 213.188 116.492C211.362 112.267 210.449 107.612 210.449 102.527C210.449 96.5833 211.917 91.0869 214.854 86.0381C217.79 80.9893 221.782 76.9967 226.831 74.0605C231.88 71.1243 237.376 69.6562 243.32 69.6562C248.87 69.6562 254.027 70.9453 258.789 73.5234C263.587 76.1016 267.49 79.6107 270.498 84.0508L267.275 86.1455C264.626 82.2783 261.188 79.2168 256.963 76.9609C252.773 74.6693 248.226 73.5234 243.32 73.5234C238.057 73.5234 233.205 74.8304 228.765 77.4443C224.325 80.0225 220.798 83.5316 218.184 87.9717C215.605 92.4118 214.316 97.2637 214.316 102.527C214.316 106.18 214.836 109.581 215.874 112.732C216.912 115.883 218.345 118.605 220.171 120.896C221.997 123.188 224.128 125.14 226.562 126.751C229.033 128.362 231.683 129.58 234.512 130.403C237.34 131.191 240.277 131.585 243.32 131.585C249.372 131.585 255.029 130.385 260.293 127.986V124.28C255.208 126.536 249.712 127.664 243.804 127.664C240.402 127.664 237.197 127.145 234.189 126.106C231.182 125.068 228.46 123.546 226.025 121.541C223.626 119.536 221.711 116.904 220.278 113.646C218.882 110.351 218.184 106.645 218.184 102.527C218.184 99.1257 218.846 95.8851 220.171 92.8057C221.496 89.6904 223.286 87.0049 225.542 84.749C227.798 82.4932 230.465 80.7028 233.545 79.3779C236.66 78.0531 239.919 77.3906 243.32 77.3906C247.581 77.3906 251.538 78.3932 255.19 80.3984C258.843 82.3678 261.815 85.0534 264.106 88.4551L260.938 90.5498C259.004 87.6852 256.479 85.4294 253.364 83.7822C250.285 82.0993 246.937 81.2578 243.32 81.2578C237.448 81.2578 232.435 83.3346 228.281 87.4883C224.128 91.6419 222.051 96.6549 222.051 102.527C222.051 106.144 222.642 109.349 223.823 112.142C225.005 114.899 226.616 117.119 228.657 118.802C230.734 120.449 233.026 121.702 235.532 122.562C238.075 123.385 240.796 123.797 243.696 123.797C249.64 123.797 255.173 122.562 260.293 120.091V100.54H264.16ZM367.07 69.6562H370.938L346.606 120.896V147H342.739V120.896L367.07 69.6562ZM359.336 69.6562H363.203L338.872 120.896V147H335.005V120.896L359.336 69.6562ZM351.602 69.6562H355.469L331.138 120.896V147H327.271V120.896L351.602 69.6562ZM343.867 69.6562H347.734L323.403 120.896V147H319.536V120.896L293.594 69.6562H297.461L321.416 116.976L343.867 69.6562ZM301.382 69.6562H305.249L324.424 106.126L322.49 110.369L301.382 69.6562ZM309.116 69.6562H313.037L328.291 97.6396L326.304 101.883L309.116 69.6562ZM316.958 69.6562H320.825L332.158 89.207L330.225 93.4502L316.958 69.6562ZM426.958 98.6602V147H423.091V98.6602C423.091 97.6217 422.912 96.7445 422.554 96.0283C422.231 95.2764 421.802 94.7035 421.265 94.3096C420.728 93.9157 420.011 93.6113 419.116 93.3965C418.257 93.1458 417.415 93.0026 416.592 92.9668C415.768 92.8952 414.748 92.8594 413.53 92.8594C412.313 92.8594 411.292 92.8952 410.469 92.9668C409.645 93.0026 408.786 93.1458 407.891 93.3965C407.031 93.6113 406.333 93.9157 405.796 94.3096C405.259 94.7035 404.811 95.2764 404.453 96.0283C404.131 96.7445 403.97 97.6217 403.97 98.6602V147H400.103V98.6602C400.103 92.2148 404.578 88.9922 413.53 88.9922C422.482 88.9922 426.958 92.2148 426.958 98.6602ZM434.692 98.6602V147H430.825V98.6602C430.825 94.1126 429.214 90.7288 425.991 88.5088C422.804 86.2529 418.651 85.125 413.53 85.125C408.41 85.125 404.238 86.2529 401.016 88.5088C397.829 90.7288 396.235 94.1126 396.235 98.6602V147H392.368V98.6602C392.368 94.9004 393.335 91.6777 395.269 88.9922C397.202 86.3066 399.727 84.3551 402.842 83.1377C405.993 81.8844 409.556 81.2578 413.53 81.2578C417.505 81.2578 421.05 81.8844 424.165 83.1377C427.316 84.3551 429.858 86.3066 431.792 88.9922C433.726 91.6777 434.692 94.9004 434.692 98.6602ZM442.427 98.6602V147H438.56V98.6602C438.56 95.2943 437.897 92.2507 436.572 89.5293C435.283 86.8079 433.493 84.57 431.201 82.8154C428.91 81.0609 426.26 79.7181 423.252 78.7871C420.244 77.8561 417.004 77.3906 413.53 77.3906C410.057 77.3906 406.816 77.8561 403.809 78.7871C400.801 79.7181 398.151 81.0609 395.859 82.8154C393.568 84.57 391.759 86.8079 390.435 89.5293C389.146 92.2507 388.501 95.2943 388.501 98.6602V147H384.634V98.6602C384.634 94.7572 385.386 91.2122 386.89 88.0254C388.429 84.8385 390.506 82.2067 393.12 80.1299C395.734 78.0173 398.796 76.388 402.305 75.2422C405.814 74.0964 409.556 73.5234 413.53 73.5234C417.505 73.5234 421.247 74.0964 424.756 75.2422C428.265 76.388 431.326 78.0173 433.94 80.1299C436.554 82.2067 438.613 84.8385 440.117 88.0254C441.657 91.2122 442.427 94.7572 442.427 98.6602ZM450.161 147H446.294V98.6602C446.294 94.7572 445.417 91.0153 443.662 87.4346C441.943 83.8538 439.616 80.7744 436.68 78.1963C433.743 75.5824 430.252 73.5055 426.206 71.9658C422.16 70.4261 417.935 69.6562 413.53 69.6562C407.479 69.6562 401.982 70.8021 397.041 73.0938C392.135 75.3496 388.197 78.7155 385.225 83.1914C382.253 87.6315 380.767 92.7878 380.767 98.6602V147H376.899V98.6602C376.899 93.7188 377.866 89.1712 379.8 85.0176C381.733 80.8639 384.347 77.3906 387.642 74.5977C390.972 71.8047 394.857 69.6383 399.297 68.0986C403.773 66.5589 408.517 65.7891 413.53 65.7891C422.41 65.7891 430.109 68.027 436.626 72.5029C443.143 68.027 450.841 65.7891 459.722 65.7891C464.735 65.7891 469.461 66.5589 473.901 68.0986C478.377 69.6383 482.262 71.8047 485.557 74.5977C488.887 77.3906 491.519 80.8639 493.452 85.0176C495.386 89.1712 496.353 93.7188 496.353 98.6602V147H492.485V98.6602C492.485 92.8236 490.999 87.6852 488.027 83.2451C485.055 78.7692 481.099 75.3854 476.157 73.0938C471.252 70.8021 465.773 69.6562 459.722 69.6562C452.131 69.6562 445.506 71.4466 439.849 75.0273C440.672 75.7435 441.585 76.6745 442.588 77.8203C447.493 74.9557 453.205 73.5234 459.722 73.5234C463.696 73.5234 467.438 74.0964 470.947 75.2422C474.456 76.388 477.518 78.0173 480.132 80.1299C482.746 82.2067 484.805 84.8385 486.309 88.0254C487.848 91.2122 488.618 94.7572 488.618 98.6602V147H484.751V98.6602C484.751 95.2943 484.089 92.2507 482.764 89.5293C481.475 86.8079 479.684 84.57 477.393 82.8154C475.101 81.0609 472.451 79.7181 469.443 78.7871C466.436 77.8561 463.195 77.3906 459.722 77.3906C454.028 77.3906 449.105 78.5544 444.951 80.8818C445.596 81.8844 446.24 82.9945 446.885 84.2119C450.394 82.2425 454.673 81.2578 459.722 81.2578C463.696 81.2578 467.241 81.8844 470.356 83.1377C473.507 84.3551 476.05 86.3066 477.983 88.9922C479.917 91.6777 480.884 94.9004 480.884 98.6602V147H477.017V98.6602C477.017 94.1126 475.405 90.7288 472.183 88.5088C468.996 86.2529 464.842 85.125 459.722 85.125C455.067 85.125 451.289 85.9844 448.389 87.7031C448.854 89.0638 449.212 90.3529 449.463 91.5703C451.719 89.8516 455.138 88.9922 459.722 88.9922C468.674 88.9922 473.149 92.2148 473.149 98.6602V147H469.282V98.6602C469.282 97.6217 469.103 96.7445 468.745 96.0283C468.423 95.2764 467.993 94.7035 467.456 94.3096C466.919 93.9157 466.203 93.6113 465.308 93.3965C464.448 93.1458 463.607 93.0026 462.783 92.9668C461.96 92.8952 460.939 92.8594 459.722 92.8594C458.504 92.8594 457.484 92.8952 456.66 92.9668C455.837 93.0026 454.977 93.1458 454.082 93.3965C453.223 93.6113 452.524 93.9157 451.987 94.3096C451.45 94.7035 451.003 95.2764 450.645 96.0283C450.322 96.7445 450.161 97.6217 450.161 98.6602V147Z" fill="url(#paint1_linear_2_21)"/>
</g>
<defs>
<filter id="filter0_d_2_21" x="-14" y="0" width="1046" height="225" filterUnits="userSpaceOnUse" color-interpolation-filters="sRGB">
<feFlood flood-opacity="0" result="BackgroundImageFix"/>
<feColorMatrix in="SourceAlpha" type="matrix" values="0 0 0 0 0 0 0 0 0 0 0 0 0 0 0 0 0 0 127 0" result="hardAlpha"/>
<feOffset dx="2" dy="8"/>
<feGaussianBlur stdDeviation="3"/>
<feComposite in2="hardAlpha" operator="out"/>
<feColorMatrix type="matrix" values="0 0 0 0 0 0 0 0 0 0 0 0 0 0 0 0 0 0 0.25 0"/>
<feBlend mode="normal" in2="BackgroundImageFix" result="effect1_dropShadow_2_21"/>
<feBlend mode="normal" in="SourceGraphic" in2="effect1_dropShadow_2_21" result="shape"/>
</filter>
<linearGradient id="paint0_linear_2_21" x1="252.673" y1="16.6731" x2="252.673" y2="187.673" gradientUnits="userSpaceOnUse">
<stop offset="0.00523059" stop-color="#E5CE00"/>
<stop offset="0.447327" stop-color="#1E5CBA" stop-opacity="0.9"/>
<stop offset="0.546286" stop-color="#0C3F8B" stop-opacity="0.9"/>
<stop offset="1" stop-color="#E8D100"/>
</linearGradient>
<linearGradient id="paint1_linear_2_21" x1="256" y1="20" x2="256" y2="191" gradientUnits="userSpaceOnUse">
<stop offset="0.00523059" stop-color="#D6C000"/>
<stop offset="0.447327" stop-color="#1E82BA" stop-opacity="0.9"/>
<stop offset="0.546286" stop-color="#0C3574" stop-opacity="0.9"/>
<stop offset="1" stop-color="#E5EA00"/>
</linearGradient>
</defs>
</svg>
